<svg width="17" height="28" viewBox="0 0 17 28" fill="none" xmlns="http://www.w3.org/2000/svg">
<path d="M16.91 18.7575C16.91 19.8775 16.61 20.9075 16.01 21.8475C15.41 22.7875 14.52 23.5375 13.34 24.0975C12.16 24.6575 10.74 24.9375 9.08 24.9375V27.3375H7.79V24.8775C5.61 24.6975 3.83 24.0375 2.45 22.8975C1.09 21.7575 0.34 20.2375 0.2 18.3375H5.66C5.72 18.9775 5.93 19.5175 6.29 19.9575C6.67 20.3975 7.17 20.6975 7.79 20.8575V16.0875C7.45 15.9875 7.23 15.9175 7.13 15.8775C5.67 15.4575 4.47 15.0375 3.53 14.6175C2.61 14.1775 1.81 13.5375 1.13 12.6975C0.47 11.8375 0.14 10.7075 0.14 9.30754C0.14 8.08754 0.47 7.01754 1.13 6.09754C1.81 5.17754 2.73 4.47754 3.89 3.99754C5.05 3.49754 6.35 3.22754 7.79 3.18754V0.727539H9.08V3.21754C11.28 3.35754 13.03 3.98754 14.33 5.10754C15.63 6.20754 16.36 7.66754 16.52 9.48754H10.97C10.89 8.88754 10.69 8.39754 10.37 8.01754C10.05 7.63754 9.62 7.37754 9.08 7.23754V11.9175L10.01 12.2175C11.47 12.6775 12.65 13.1275 13.55 13.5675C14.47 13.9875 15.26 14.6175 15.92 15.4575C16.58 16.2975 16.91 17.3975 16.91 18.7575ZM5.63 9.09754C5.63 9.63754 5.81 10.0975 6.17 10.4775C6.55 10.8375 7.09 11.1675 7.79 11.4675V7.11754C7.11 7.15754 6.58 7.34754 6.2 7.68754C5.82 8.02754 5.63 8.49754 5.63 9.09754ZM9.08 21.0075C9.8 20.9875 10.37 20.7875 10.79 20.4075C11.21 20.0075 11.42 19.4975 11.42 18.8775C11.42 18.3175 11.22 17.8575 10.82 17.4975C10.42 17.1175 9.84 16.7875 9.08 16.5075V21.0075Z" fill="#30D7BA"/>
</svg>
