<svg width="62" height="62" viewBox="0 0 62 62" fill="none" xmlns="http://www.w3.org/2000/svg">
<g clip-path="url(#clip0)">
<path d="M17.91 21.7575C17.91 22.8775 17.61 23.9075 17.01 24.8475C16.41 25.7875 15.52 26.5375 14.34 27.0975C13.16 27.6575 11.74 27.9375 10.08 27.9375V30.3375H8.79V27.8775C6.61 27.6975 4.83 27.0375 3.45 25.8975C2.09 24.7575 1.34 23.2375 1.2 21.3375H6.66C6.72 21.9775 6.93 22.5175 7.29 22.9575C7.67 23.3975 8.17 23.6975 8.79 23.8575V19.0875C8.45 18.9875 8.23 18.9175 8.13 18.8775C6.67 18.4575 5.47 18.0375 4.53 17.6175C3.61 17.1775 2.81 16.5375 2.13 15.6975C1.47 14.8375 1.14 13.7075 1.14 12.3075C1.14 11.0875 1.47 10.0175 2.13 9.09754C2.81 8.17754 3.73 7.47754 4.89 6.99754C6.05 6.49754 7.35 6.22754 8.79 6.18754V3.72754H10.08V6.21754C12.28 6.35754 14.03 6.98754 15.33 8.10754C16.63 9.20754 17.36 10.6675 17.52 12.4875H11.97C11.89 11.8875 11.69 11.3975 11.37 11.0175C11.05 10.6375 10.62 10.3775 10.08 10.2375V14.9175L11.01 15.2175C12.47 15.6775 13.65 16.1275 14.55 16.5675C15.47 16.9875 16.26 17.6175 16.92 18.4575C17.58 19.2975 17.91 20.3975 17.91 21.7575ZM6.63 12.0975C6.63 12.6375 6.81 13.0975 7.17 13.4775C7.55 13.8375 8.09 14.1675 8.79 14.4675V10.1175C8.11 10.1575 7.58 10.3475 7.2 10.6875C6.82 11.0275 6.63 11.4975 6.63 12.0975ZM10.08 24.0075C10.8 23.9875 11.37 23.7875 11.79 23.4075C12.21 23.0075 12.42 22.4975 12.42 21.8775C12.42 21.3175 12.22 20.8575 11.82 20.4975C11.42 20.1175 10.84 19.7875 10.08 19.5075V24.0075Z" fill="#30D7BA"/>
<path d="M2.51953 48.7217V51.7275H0.761719V43.1963H4.08984C4.73047 43.1963 5.29297 43.3135 5.77734 43.5479C6.26562 43.7822 6.64062 44.1162 6.90234 44.5498C7.16406 44.9795 7.29492 45.4697 7.29492 46.0205C7.29492 46.8564 7.00781 47.5166 6.43359 48.001C5.86328 48.4814 5.07227 48.7217 4.06055 48.7217H2.51953ZM2.51953 47.2979H4.08984C4.55469 47.2979 4.9082 47.1885 5.15039 46.9697C5.39648 46.751 5.51953 46.4385 5.51953 46.0322C5.51953 45.6143 5.39648 45.2764 5.15039 45.0186C4.9043 44.7607 4.56445 44.6279 4.13086 44.6201H2.51953V47.2979ZM11.3324 51.8447C10.4027 51.8447 9.64492 51.5596 9.05898 50.9893C8.47695 50.4189 8.18594 49.6592 8.18594 48.71V48.5459C8.18594 47.9092 8.30898 47.3408 8.55508 46.8408C8.80117 46.3369 9.14883 45.9502 9.59805 45.6807C10.0512 45.4072 10.5668 45.2705 11.1449 45.2705C12.0121 45.2705 12.6937 45.5439 13.1898 46.0908C13.6898 46.6377 13.9398 47.4131 13.9398 48.417V49.1084H9.90273C9.95742 49.5225 10.1215 49.8545 10.3949 50.1045C10.6723 50.3545 11.0219 50.4795 11.4437 50.4795C12.0961 50.4795 12.6059 50.2432 12.973 49.7705L13.8051 50.7021C13.5512 51.0615 13.2074 51.3428 12.7738 51.5459C12.3402 51.7451 11.8598 51.8447 11.3324 51.8447ZM11.1391 46.6416C10.8031 46.6416 10.5297 46.7549 10.3187 46.9814C10.1117 47.208 9.97891 47.5322 9.92031 47.9541H12.2758V47.8193C12.268 47.4443 12.1664 47.1553 11.9711 46.9521C11.7758 46.7451 11.4984 46.6416 11.1391 46.6416ZM18.5691 46.9756C18.3387 46.9443 18.1355 46.9287 17.9598 46.9287C17.3191 46.9287 16.8992 47.1455 16.7 47.5791V51.7275H15.0066V45.3877H16.6062L16.6531 46.1436C16.993 45.5615 17.4637 45.2705 18.0652 45.2705C18.2527 45.2705 18.4285 45.2959 18.5926 45.3467L18.5691 46.9756ZM20.0227 52.46H18.7629L21.9035 43.1963H23.1633L20.0227 52.46ZM28.7539 45.3877L28.8066 46.0967C29.2559 45.5459 29.8633 45.2705 30.6289 45.2705C31.4453 45.2705 32.0059 45.5928 32.3105 46.2373C32.7559 45.5928 33.3906 45.2705 34.2148 45.2705C34.9023 45.2705 35.4141 45.4717 35.75 45.874C36.0859 46.2725 36.2539 46.874 36.2539 47.6787V51.7275H34.5547V47.6846C34.5547 47.3252 34.4844 47.0635 34.3438 46.8994C34.2031 46.7314 33.9551 46.6475 33.5996 46.6475C33.0918 46.6475 32.7402 46.8896 32.5449 47.374L32.5508 51.7275H30.8574V47.6904C30.8574 47.3232 30.7852 47.0576 30.6406 46.8936C30.4961 46.7295 30.25 46.6475 29.9023 46.6475C29.4219 46.6475 29.0742 46.8467 28.8594 47.2451V51.7275H27.166V45.3877H28.7539ZM37.3969 48.499C37.3969 47.8701 37.518 47.3096 37.7602 46.8174C38.0023 46.3252 38.35 45.9443 38.8031 45.6748C39.2602 45.4053 39.7895 45.2705 40.391 45.2705C41.2465 45.2705 41.9437 45.5322 42.4828 46.0557C43.0258 46.5791 43.3285 47.29 43.391 48.1885L43.4027 48.6221C43.4027 49.5947 43.1312 50.376 42.5883 50.9658C42.0453 51.5518 41.3168 51.8447 40.4027 51.8447C39.4887 51.8447 38.7582 51.5518 38.2113 50.9658C37.6684 50.3799 37.3969 49.583 37.3969 48.5752V48.499ZM39.0902 48.6221C39.0902 49.2236 39.2035 49.6846 39.4301 50.0049C39.6566 50.3213 39.9809 50.4795 40.4027 50.4795C40.8129 50.4795 41.1332 50.3232 41.3637 50.0107C41.5941 49.6943 41.7094 49.1904 41.7094 48.499C41.7094 47.9092 41.5941 47.4521 41.3637 47.1279C41.1332 46.8037 40.809 46.6416 40.391 46.6416C39.977 46.6416 39.6566 46.8037 39.4301 47.1279C39.2035 47.4482 39.0902 47.9463 39.0902 48.6221ZM46.1043 45.3877L46.157 46.1201C46.6102 45.5537 47.2176 45.2705 47.9793 45.2705C48.6512 45.2705 49.1512 45.4678 49.4793 45.8623C49.8074 46.2568 49.9754 46.8467 49.9832 47.6318V51.7275H48.2898V47.6729C48.2898 47.3135 48.2117 47.0537 48.0555 46.8936C47.8992 46.7295 47.6395 46.6475 47.2762 46.6475C46.7996 46.6475 46.4422 46.8506 46.2039 47.2568V51.7275H44.5105V45.3877H46.1043ZM53.3996 43.8291V45.3877H54.4836V46.6299H53.3996V49.7939C53.3996 50.0283 53.4445 50.1963 53.5344 50.2979C53.6242 50.3994 53.7961 50.4502 54.05 50.4502C54.2375 50.4502 54.4035 50.4365 54.548 50.4092V51.6924C54.216 51.7939 53.8742 51.8447 53.5227 51.8447C52.3352 51.8447 51.7297 51.2451 51.7062 50.0459V46.6299H50.7805V45.3877H51.7062V43.8291H53.3996ZM57.1793 46.0791C57.6285 45.54 58.193 45.2705 58.8727 45.2705C60.2477 45.2705 60.9449 46.0693 60.9645 47.667V51.7275H59.2711V47.7139C59.2711 47.3506 59.193 47.083 59.0367 46.9111C58.8805 46.7354 58.6207 46.6475 58.2574 46.6475C57.7613 46.6475 57.402 46.8389 57.1793 47.2217V51.7275H55.4859V42.7275H57.1793V46.0791Z" fill="#5C5C5C"/>
</g>
<defs>
<clipPath id="clip0">
<rect width="62" height="61" fill="white" transform="translate(0 0.727539)"/>
</clipPath>
</defs>
</svg>
