<svg width="57" height="62" viewBox="0 0 57 62" fill="none" xmlns="http://www.w3.org/2000/svg">
<path d="M11.76 30.2625C11.76 36.2759 13.1167 41.0792 15.83 44.6725C18.5433 48.2292 22.6867 50.0075 28.26 50.0075C33.8333 50.0075 37.9767 48.2292 40.69 44.6725C43.4033 41.0792 44.76 36.2759 44.76 30.2625C44.76 24.2859 43.4033 19.5192 40.69 15.9625C37.9767 12.3692 33.8333 10.5725 28.26 10.5725C22.6867 10.5725 18.5433 12.3509 15.83 15.9075C13.1167 19.4642 11.76 24.2492 11.76 30.2625ZM32.715 30.2625C32.715 32.8659 32.4217 34.8825 31.835 36.3125C31.2483 37.7425 30.0567 38.4575 28.26 38.4575C26.4267 38.4575 25.2167 37.7425 24.63 36.3125C24.0433 34.8825 23.75 32.8659 23.75 30.2625C23.75 27.6592 24.0433 25.6609 24.63 24.2675C25.2167 22.8375 26.4267 22.1225 28.26 22.1225C30.0567 22.1225 31.2483 22.8375 31.835 24.2675C32.4217 25.6609 32.715 27.6592 32.715 30.2625Z" fill="#30D7BA"/>
</svg>
