<svg width="79" height="62" viewBox="0 0 79 62" fill="none" xmlns="http://www.w3.org/2000/svg">
<path d="M10.55 22.7275V11.2875H29.195V50.2275H16.38V22.7275H10.55ZM33.9278 30.2625C33.9278 36.2759 35.2844 41.0792 37.9978 44.6725C40.7111 48.2292 44.8544 50.0075 50.4278 50.0075C56.0011 50.0075 60.1444 48.2292 62.8578 44.6725C65.5711 41.0792 66.9278 36.2759 66.9278 30.2625C66.9278 24.2859 65.5711 19.5192 62.8578 15.9625C60.1444 12.3692 56.0011 10.5725 50.4278 10.5725C44.8544 10.5725 40.7111 12.3509 37.9978 15.9075C35.2844 19.4642 33.9278 24.2492 33.9278 30.2625ZM54.8828 30.2625C54.8828 32.8659 54.5894 34.8825 54.0028 36.3125C53.4161 37.7425 52.2244 38.4575 50.4278 38.4575C48.5944 38.4575 47.3844 37.7425 46.7978 36.3125C46.2111 34.8825 45.9178 32.8659 45.9178 30.2625C45.9178 27.6592 46.2111 25.6609 46.7978 24.2675C47.3844 22.8375 48.5944 22.1225 50.4278 22.1225C52.2244 22.1225 53.4161 22.8375 54.0028 24.2675C54.5894 25.6609 54.8828 27.6592 54.8828 30.2625Z" fill="#30D7BA"/>
</svg>
