<svg width="87" height="62" viewBox="0 0 87 62" fill="none" xmlns="http://www.w3.org/2000/svg">
<path d="M24.47 37.6875C24.6533 38.7509 24.9833 39.5575 25.46 40.1075C25.9733 40.6209 26.67 40.8775 27.55 40.8775C28.9067 40.8775 29.7867 40.1992 30.19 38.8425C30.63 37.4492 30.85 35.2309 30.85 32.1875C30.19 33.2142 29.2367 34.0209 27.99 34.6075C26.7433 35.1942 25.3317 35.4875 23.755 35.4875C20.235 35.4875 17.4117 34.4059 15.285 32.2425C13.195 30.0792 12.15 26.9442 12.15 22.8375C12.15 20.0875 12.7183 17.7042 13.855 15.6875C15.0283 13.6342 16.6783 12.0575 18.805 10.9575C20.9317 9.85754 23.4433 9.30754 26.34 9.30754C30.3 9.30754 33.3983 10.1325 35.635 11.7825C37.9083 13.3959 39.485 15.6325 40.365 18.4925C41.245 21.3525 41.685 24.8359 41.685 28.9425C41.685 36.1292 40.6033 41.5375 38.44 45.1675C36.3133 48.7975 32.6833 50.6125 27.55 50.6125C24.5433 50.6125 21.9767 50.0075 19.85 48.7975C17.7233 47.5875 16.0917 46.0109 14.955 44.0675C13.855 42.0875 13.2317 39.9609 13.085 37.6875H24.47ZM30.025 23.0025C30.025 21.9025 29.7317 21.0959 29.145 20.5825C28.595 20.0325 27.8067 19.7575 26.78 19.7575C25.7533 19.7575 24.9467 20.0325 24.36 20.5825C23.81 21.0959 23.535 21.9025 23.535 23.0025C23.535 23.9925 23.8283 24.7625 24.415 25.3125C25.0017 25.8625 25.79 26.1375 26.78 26.1375C27.77 26.1375 28.5583 25.8625 29.145 25.3125C29.7317 24.7625 30.025 23.9925 30.025 23.0025ZM57.4874 37.6875C57.6707 38.7509 58.0007 39.5575 58.4774 40.1075C58.9907 40.6209 59.6874 40.8775 60.5674 40.8775C61.9241 40.8775 62.8041 40.1992 63.2074 38.8425C63.6474 37.4492 63.8674 35.2309 63.8674 32.1875C63.2074 33.2142 62.2541 34.0209 61.0074 34.6075C59.7607 35.1942 58.3491 35.4875 56.7724 35.4875C53.2524 35.4875 50.4291 34.4059 48.3024 32.2425C46.2124 30.0792 45.1674 26.9442 45.1674 22.8375C45.1674 20.0875 45.7357 17.7042 46.8724 15.6875C48.0457 13.6342 49.6957 12.0575 51.8224 10.9575C53.9491 9.85754 56.4607 9.30754 59.3574 9.30754C63.3174 9.30754 66.4157 10.1325 68.6524 11.7825C70.9257 13.3959 72.5024 15.6325 73.3824 18.4925C74.2624 21.3525 74.7024 24.8359 74.7024 28.9425C74.7024 36.1292 73.6207 41.5375 71.4574 45.1675C69.3307 48.7975 65.7007 50.6125 60.5674 50.6125C57.5607 50.6125 54.9941 50.0075 52.8674 48.7975C50.7407 47.5875 49.1091 46.0109 47.9724 44.0675C46.8724 42.0875 46.2491 39.9609 46.1024 37.6875H57.4874ZM63.0424 23.0025C63.0424 21.9025 62.7491 21.0959 62.1624 20.5825C61.6124 20.0325 60.8241 19.7575 59.7974 19.7575C58.7707 19.7575 57.9641 20.0325 57.3774 20.5825C56.8274 21.0959 56.5524 21.9025 56.5524 23.0025C56.5524 23.9925 56.8457 24.7625 57.4324 25.3125C58.0191 25.8625 58.8074 26.1375 59.7974 26.1375C60.7874 26.1375 61.5757 25.8625 62.1624 25.3125C62.7491 24.7625 63.0424 23.9925 63.0424 23.0025Z" fill="#30D7BA"/>
</svg>
