<svg width="71" height="66" viewBox="0 0 71 66" fill="none" xmlns="http://www.w3.org/2000/svg">
<path d="M17.7857 19.419L11.4971 13.16L15.66 8.99714L21.919 15.2857L17.7857 19.419ZM38.4524 2V10.8571H32.5476V2H38.4524ZM59.5029 13.16L53.2143 19.419L49.081 15.2857L55.34 8.99714L59.5029 13.16ZM13.3571 30.0476V35.9524H4.5V30.0476H13.3571ZM57.6429 30.0476H66.5V35.9524H57.6429V30.0476ZM17.7857 58.0952H53.2143C54.7803 58.0952 56.2822 58.7173 57.3896 59.8247C58.4969 60.9321 59.119 62.434 59.119 64H11.881C11.881 62.434 12.5031 60.9321 13.6104 59.8247C14.7178 58.7173 16.2197 58.0952 17.7857 58.0952ZM35.5 13.8095C40.1981 13.8095 44.7038 15.6758 48.0259 18.9979C51.348 22.32 53.2143 26.8257 53.2143 31.5238V55.1429H17.7857V31.5238C17.7857 26.8257 19.652 22.32 22.9741 18.9979C26.2962 15.6758 30.8019 13.8095 35.5 13.8095Z" fill="#03D6F3"/>
</svg>
